<!-- icon666.com - MILLIONS vector ICONS FREE --><svg id="Layer_1" enable-background="new 0 0 135 135" viewBox="0 0 135 135" xmlns="http://www.w3.org/2000/svg"><g id="_x34_5"><g><g><ellipse cx="67.5" cy="67.426" fill="#b730aa" rx="63.926" ry="63.926" transform="matrix(.16 -.987 .987 .16 -9.867 123.254)" style="fill: rgb(183, 214, 220);"></ellipse></g></g><g><g><ellipse cx="67.5" cy="67.5" fill="#a32391" rx="49.201" ry="49.201" transform="matrix(.585 -.811 .811 .585 -26.727 82.791)" style="fill: rgb(189, 217, 255);"></ellipse></g></g><g><g><g><path d="m13.6650505 102.0101929c11.3529244 17.7338257 31.2083473 29.4898071 53.8317833 29.4898071 22.6268387 0 42.4832382-11.7562256 53.8381195-29.4898071z" fill="#ffc27c"></path></g></g><g><g><path d="m33.2860336 104.9090729v16.6690598c-1.8776474-1.1885147-3.6753769-2.4669342-5.4131832-3.8452072v-12.8238525c0-1.4981232 1.2084427-2.7066269 2.7065601-2.7066269 1.5046464-.0000001 2.7066231 1.2023238 2.7066231 2.7066268z" fill="#f7b26d"></path></g></g><g><g><path d="m104.7163086 111.7404556v7.8001938c-1.7378082 1.2584305-3.5455933 2.4170074-5.4132462 3.485611v-11.2858047c0-1.4981232 1.2085648-2.7065659 2.7066803-2.7065659 1.5044556 0 2.7065659 1.2023086 2.7065659 2.7065658z" fill="#f7b26d"></path></g></g><g><g><path d="m88.6464081 116.4345703v11.4655762c-1.7677994.6292114-3.5754623 1.1785126-5.4131165 1.6279602v-13.0935364c0-1.4981232 1.2084427-2.7066269 2.7065582-2.7066269 1.5047074 0 2.7065583 1.2023239 2.7065583 2.7066269z" fill="#f7b26d"></path></g></g><g><g><path d="m39.1262245 102.0101929v9.1601257c0 1.4698334 1.1945457 2.7065582 2.706562 2.7065582 1.4981155 0 2.7065582-1.2084427 2.7065582-2.7065582v-9.1601257z" fill="#f7b26d"></path></g></g><g><g><path d="m113.9345779 102.0101929v9.4805222c1.9477463-2.0574722 3.7652893-4.2446671 5.4131241-6.5518265v-2.9286957z" fill="#f7b26d"></path></g></g><g><g><path d="m56.9662399 106.1974258v24.4293289c-1.8376541-.2996674-3.6453209-.6791382-5.4131203-1.1385803l-.0099945-23.2907486c0-1.4981155 1.2084427-2.7066193 2.7065582-2.7066193 1.5298615.0000001 2.7165566 1.2678681 2.7165566 2.7066193z" fill="#f7b26d"></path></g></g><g><g><path d="m89.7150116 102.0101929v3.5870514c0 1.4618759 1.1793442 2.7065582 2.7065582 2.7065582 1.4883652 0 2.7065582-1.2184372 2.7065582-2.7065582v-3.5870514z" fill="#f7b26d"></path></g></g><g><g><path d="m68.8613281 102.0101929v29.4654236c1.8277817-.0299988 3.6355667-.1497192 5.4131165-.3396606v-29.1257629h-5.4131165z" fill="#f7b26d"></path></g></g></g><g><g><g><g><path d="m88.7864227 68.8500443h8.5463486c.7873077 0 1.4243851-.637085 1.4243851-1.4243927s-.6370773-1.4243927-1.4243851-1.4243927h-8.5463486c-.7873077 0-1.4243851.637085-1.4243851 1.4243927s.6370774 1.4243927 1.4243851 1.4243927z" fill="#fff"></path></g></g></g><g><g><g><path d="m101.7980652 68.8500443h1.6981125c.7873077 0 1.4243851-.637085 1.4243851-1.4243927s-.6370773-1.4243927-1.4243851-1.4243927h-1.6981125c-.7873077 0-1.4243927.637085-1.4243927 1.4243927s.6370849 1.4243927 1.4243927 1.4243927z" fill="#fff"></path></g></g></g></g><g><g><g><g><g><g><path d="m78.7429047 87.7957458h-7.2897263c-.8768158 0-1.6574249-.555336-1.9449539-1.383667l-2.8854523-8.3124466h-9.1482773l5.1444511 12.9794006c1.2442665 3.1392746 4.2789192 5.2008057 7.6557884 5.2008057h8.4681702" fill="#1273ff" style="fill: rgb(0, 106, 255);"></path></g></g><g><g><g><path d="m77.9480667 95.0645752c.044075 2.0475922 1.7397079 3.6717606 3.7873077 3.6276855l7.9391098-.1647339c.7545013-.016243 1.3420868-.6439819 1.3258438-1.3985748-.0159378-.7405167-.6296921-1.3284073-1.384201-1.3121643l1.3972931-.0300751c.7545013-.016243 1.3420868-.6439896 1.3255463-1.4125595-.0159378-.7405243-.6296997-1.3284149-1.384201-1.3121719l1.019989-.0219574c.7545929-.016243 1.3561707-.6442871 1.3396225-1.4127731-.0159378-.7406082-.6439819-1.3421783-1.3985748-1.3259354l-1.844429.0397034c.7406006-.0159454 1.3421783-.6439896 1.3265381-1.3705215-.016243-.7545853-.6160126-1.3427811-1.342926-1.3411255l-6.9282074.1429749 1.2362366-1.0190887c.4119492-.3444443.6249542-.8382721.6144257-1.3272934-.0078201-.3633041-.1413498-.7239075-.3855667-1.0262451-.5884933-.7141953-1.6391678-.8174286-2.353447-.2288513l-3.0558777 2.5140381c-.8778381.7221909-1.3759613 1.807106-1.3515015 2.943573z" fill="#ffc27c"></path></g></g><g><g><path d="m77.8926392 88.9011612c-.0454941.2426453-.0623245.4777985-.0607681.7238312l.1154633 5.4360428c.0483704 2.0507355 1.7436371 3.6791916 3.7944489 3.6309433l7.9315567-.1701889c.7524338-.0080185 1.3454742-.6373596 1.3281937-1.3951263-.0190353-.4646912-.2728348-.8845749-.6396713-1.1139984-.192688.1187897-.4237823.1781158-.6608353.184845l-7.9406052.1647568c-2.0508423.0483017-3.7460861-1.5802078-3.7854004-3.6255112z" fill="#efa765"></path></g></g></g></g><g><g><path d="m25.8248386 82.1725845v19.8361282h41.9956589v-19.8361282c0-11.5967636-9.4010353-20.9978065-20.9978065-20.9978065h-.000042c-11.5967693 0-20.9978104 9.4010429-20.9978104 20.9978065z" fill="#6277dd"></path></g></g><g><g><path d="m25.8336372 82.1846237v19.8255692h41.9806633v-19.8255692c0-11.5979462-9.3924675-21.0150604-20.9904099-21.0150604-5.798893 0-11.0526581 2.3541641-14.8443737 6.145874-2.8746414 2.8994522-4.9315872 6.616745-5.7494335 10.780098-.2477607 1.3135147-.3964462 2.7013016-.3964462 4.0890884z" fill="#43a1ff"></path></g></g><g><g><path d="m25.8334751 82.1607819v19.8479309h41.9824371v-2.0947876h-40.9608898v-18.7748413c0-5.4484482 2.0675888-10.3860474 5.4484444-14.1076202-.1215858.0972443-.2188263.1946335-.3162155.2918701-3.8188133 3.7944641-6.1537762 9.0484313-6.1537762 14.8374481z" fill="#1273ff" style="fill: rgb(0, 106, 255);"></path></g></g><g><g><path d="m25.8334751 82.1607819v19.8479309h8.3186054v-19.8479309c0-5.7890167 2.3351135-11.042984 6.153923-14.8374481 2.8701591-2.8701553 6.5430374-4.9133987 10.6779175-5.7403145-1.3377647-.2675209-2.7242241-.413456-4.1592293-.413456-5.8133583 0-11.0429764 2.3593102-14.8374405 6.1537704-3.8188132 3.7944642-6.1537761 9.0484314-6.1537761 14.8374482z" fill="#1273ff" style="fill: rgb(0, 106, 255);"></path></g></g><g><g><g><path d="m34.3090134 81.6610718v4.1442642h9.6898689v8.5002594h-18.1652184v-12.6445236z" fill="#1273ff" style="fill: rgb(0, 106, 255);"></path></g></g><g><g><g><path d="m43.2151718 93.0846176c.044075 2.0475922 1.7397118 3.6717682 3.7873039 3.6276932l7.9391098-.1647339c.7545052-.016243 1.3420944-.6439896 1.3258514-1.3985748-.0159416-.7405167-.6296959-1.3284073-1.384201-1.3121643l1.3972855-.0300827c.7545052-.016243 1.3420944-.6439819 1.3255501-1.4125595-.0159416-.7405167-.6296959-1.3284073-1.384201-1.3121643l1.0199928-.0219574c.7545891-.016243 1.356163-.6442871 1.3396225-1.4127808-.0159416-.7406006-.6439857-1.3421783-1.3985786-1.3259354l-1.844429.0397034c.7406044-.0159378 1.3421783-.6439819 1.3265419-1.3705139-.016243-.7545929-.6160164-1.3427811-1.3429337-1.3411255l-6.9282036.1429672 1.2362366-1.0190887c.4119492-.3444443.6249504-.8382721.6144257-1.3272858-.0078201-.3633118-.1413498-.7239151-.3855667-1.0262451-.5884895-.7142029-1.639164-.8174362-2.353447-.2288589l-3.0558777 2.5140381c-.8778419.7221909-1.3759651 1.807106-1.3515015 2.9435806z" fill="#ffc27c"></path></g></g><g><g><path d="m43.1597443 86.9212036c-.0454979.2426453-.0623245.4777985-.0607643.7238388l.1154594 5.4360352c.0483665 2.0507355 1.7436371 3.6791916 3.7944527 3.6309509l7.9315491-.1701889c.7524376-.0080261 1.3454781-.6373596 1.3281937-1.3951263-.0190315-.4646988-.2728271-.8845825-.6396713-1.1139984-.1926842.1187897-.4237747.1781158-.6608315.184845l-7.9406052.1647568c-2.0508423.0483017-3.7460823-1.5802155-3.7854004-3.6255188z" fill="#efa765"></path></g></g></g></g><g><g><path d="m38.3942261 65.7932205 2.1512794 5.7334671c.4282532 1.1413574 1.8493614 1.9483795 2.8002586 1.5902176l4.9640007-1.8697433c.2990761-.112648.6675797-.1128006 1.0511818-.0004349l6.3928185 1.8726349c1.2190132.3570862 2.0334663-.4498749 1.6054306-1.5906525l-2.1520386-5.7354889c-1.7369576-4.6292496-6.9081879-8.3943062-11.5561256-8.3943062-2.3238983 0-4.0716171.9353752-5.0279961 2.4626541-.9490699 1.515503-1.0995254 3.611065-.2288093 5.9316521z" fill="#fff"></path></g></g><g><g><path d="m41.0626373 59.9160156v4.2577438c0 2.85466 2.3213043 5.1759644 5.1762695 5.1759644 1.4273262 0 2.7182884-.5833588 3.6616592-1.5143051.9309464-.943367 1.5143013-2.2343292 1.5143013-3.6616592v-4.0092506c-1.5764236.67033-3.3267975 1.0303459-5.1638412 1.005497-1.8618926-.0248529-3.6243858-.47184-5.1883888-1.2539903z" fill="#ffc27c"></path></g></g><g><g><path d="m41.0626373 59.9160156v4.2577438c0 1.6509781.7697296 3.1155777 1.9737167 4.0589523-.3600159-.7076035-.5709343-1.5146103-.5709343-2.3585815 0-1.9072685 1.6777344-3.4151497 3.5642281-3.1344337.530983.0790138 1.0732346.1233253 1.6241608.1306801 1.3033867.0124245 2.5694962-.1615219 3.7610588-.5088081v-2.1970596c-1.5764236.67033-3.3267975 1.0303459-5.1638412 1.005497-1.8618927-.0248529-3.6243859-.47184-5.1883889-1.2539903z" fill="#f7b26d"></path></g></g><g><g><path d="m33.4837303 34.0234413h21.2031136c3.0651169 0 5.7424164-1.6840363 7.1355515-4.1918507v14.0656071h-28.338665v-9.8737564z" fill="#13181e"></path></g></g><g><g><path d="m57.6424332 39.326561c-.0013771 0-.0025368.0004234-.0039101.0004234v9.415596c.0013733 0 .002533.0004234.0039101.0004234 2.5964432 0 4.7081642-2.1117249 4.7081642-4.708168 0-2.596447-2.1117211-4.7082748-4.7081642-4.7082748z" fill="#ffc27c"></path></g></g><g><g><path d="m59.6166763 48.2947006c-.6024704.2804909-1.2669411.4483299-1.9743118.4483299-.001255 0-.0025063-.0004692-.0037575-.0004692v-9.4155617c.0012512 0 .0025024-.0004692.0037575-.0004692.7073708 0 1.3718414.1678391 1.9743118.4483299" fill="#f2af6b"></path></g></g><g><g><path d="m29.0568123 25.4459343v18.5888481h5.0190811v-18.5888481c0-2.7501507 1.2322006-4.991415 3.9823532-4.991415h-4.01017c-2.7622757 0-4.9912643 2.2412643-4.9912643 4.991415z" fill="#13181e"></path></g></g><g><g><path d="m33.769455 43.1097641v4.9308548c0 7.0024872 5.4760475 13.0237274 12.4786072 13.1327248 7.0871544.109066 12.8782082-5.6092987 12.8782082-12.6723442v-15.4467507c-1.1508751.6178093-2.4715271.9691925-3.8646469.9691925h-14.1746026c-.3635139 2.3260803-2.2414131 4.1433449-4.5795441 4.4704742v3.5012817c0 .8843765-.7148972 1.5991287-1.5992737 1.5991287-.4481048.0000001-.8479995-.1816825-1.1387481-.4845618z" fill="#f7b26d"></path></g></g><g><g><path d="m33.769455 43.1097641v4.9308548c0 7.0024872 5.4760475 13.0237274 12.4786072 13.1327248 7.0871544.109066 12.8782082-5.6092987 12.8782082-12.6723442v-15.4467507c-1.1508751.6178093-2.4715271.9691925-3.8646469.9691925h-14.1746026c-.3635139 2.3260803-2.2414131 4.1433449-4.5795441 4.4704742v3.5012817c0 .8843765-.7148972 1.5991287-1.5992737 1.5991287-.4481048.0000001-.8479995-.1816825-1.1387481-.4845618z" fill="#ffc27c"></path></g></g><g><g><path d="m33.7885513 43.1455231v4.9067802c0 1.3135185.1982994 2.6020775.5452843 3.8165207.5947418 2.0073318 1.660347 3.8163681 3.072937 5.3280334 1.1152191 1.1896362 2.453392 2.1560173 3.940403 2.849987 1.0656052.4956703 2.2054787.8178444 3.4199219.991188.4708633.0744171.9663811.1240311 1.4620514.1240311h.024807c1.0656052.0246544 2.1312103-.0992279 3.122551-.3469849v-.0744171c-5.551136-1.2639046-9.6898346-6.2945671-9.6898346-12.2669563v-11.573288c-.247757.2479134-.5203247.4708633-.7928886.6443558-.3221779.2231064-.6443558.3965988-.9913406.5452843-.1734924.0742645-.346981.1486855-.5452805.1981468-.2725639.0992241-.5451317.1734924-.8176956.2231026v3.4941902c0 .1982994-.049614.421402-.1238823.5947456-.0992241.1982956-.2231026.346981-.371788.4956665-.0744171.0744209-.1486855.1486893-.2231026.1982994-.0990753.0742683-.1981468.1238785-.2973747.1734924-.1981468.049614-.3964424.0990753-.5947418.0990753-.2477608 0-.4708633-.024807-.6443558-.0990753-.1734926-.074417-.3468324-.1734923-.4956705-.3221777z" fill="#f7b26d"></path></g></g><g><g><path d="m33.7631569 39.326561c.0013733 0 .0025368.0004234.0039101.0004234v9.415596c-.0013733 0-.0025368.0004234-.0039101.0004234-2.5964451 0-4.708168-2.1117249-4.708168-4.708168 0-2.596447 2.1117229-4.7082748 4.708168-4.7082748z" fill="#f7b26d"></path></g></g><g><g><path d="m46.1866302 42.2689438v1.8639755c0 1.2197456-.9888 2.2085457-2.2085457 2.2085457h-.0000038c-1.2197456 0-2.2085457-.9888-2.2085457-2.2085457v-1.8639755c0-1.2197456.9888-2.2085457 2.2085457-2.2085457h.0000038c1.2197457 0 2.2085457.9888001 2.2085457 2.2085457z" fill="#24272b"></path></g></g><g><g><path d="m56.5594444 42.2689438v1.8639755c0 1.2197456-.9888 2.2085457-2.2085457 2.2085457h-.0000038c-1.2197456 0-2.2085457-.9888-2.2085457-2.2085457v-1.8639755c0-1.2197456.9888-2.2085457 2.2085457-2.2085457h.0000038c1.2197457 0 2.2085457.9888001 2.2085457 2.2085457z" fill="#24272b"></path></g></g><g><g><g><path d="m49.3232689 50.4253349c.5830536 0 1.0545883-.4715347 1.0545883-1.0545883v-3.5468063c0-.5830536-.4715347-1.0545883-1.0545883-1.0545883s-1.0545845.4715347-1.0545845 1.0545883v3.5468063c0 .5830536.4715309 1.0545883 1.0545845 1.0545883z" fill="#24272b"></path></g></g></g><g><g><path d="m33.3052063 29.5205593v12.4747372c0 .8812485.7199554 1.6012764 1.6012764 1.6012764.8812485 0 1.6012001-.7200279 1.6012001-1.6012764v-3.5004425c2.6314697-.3598595 4.6671562-2.6188889 4.6671562-5.3497581v-3.6245365h-7.8696327z" fill="#13181e"></path></g></g><g opacity=".3"><g><g><g><path d="m53.3224945 36.864399h.7524834c.5135231 0 .9297104-.4161911.9297104-.9297104s-.4161873-.9297104-.9297104-.9297104h-.7524834c-.5135193 0-.9297104.4161911-.9297104.9297104s.4161911.9297104.9297104.9297104z" fill="#fff"></path></g></g></g></g><g><g><g><path d="m49.3838768 56.1819267c1.020649 0 1.9806862-.3963776 2.7043533-1.1151962.4133492-.4109268.4157715-1.0788307.0060577-1.4921799-.4133492-.4145622-1.0812531-.4157753-1.4921799-.0060616-.3272858.3248634-.7588158.5030518-1.2194405.5030518-.0024261 0-.0048485 0-.0072746 0-.463047-.0024261-.8957939-.1842499-1.2206535-.5103226-.4121399-.4145622-1.0800438-.4157753-1.4921799-.0060616-.4133492.410923-.4157753 1.0788307-.0060616 1.4921799.7224541.7273026 1.6837044 1.1297417 2.7079849 1.1345901.0060617.0000001.0133364.0000001.0193941.0000001z" fill="#24272b"></path></g></g></g><g><g><g><g><path d="m28.5322247 26.9811478c0 1.963623.789854 3.7407131 2.0732937 5.0241508 1.2834377 1.2944183 3.0605278 2.0842743 5.0241508 2.0842743h9.1377296c1.9746056 1.6564407 4.5305023 2.6656342 7.3058739 2.6656342 6.2637329 0 11.3536339-5.0789852 11.3536339-11.3427219 0-6.2746487-5.089901-11.3536348-11.3536339-11.3536348-2.6656342 0-5.1228409.9214859-7.0645027 2.4681883-.7459335-.3400593-1.5796432-.5375071-2.4572105-.5375071-2.5449829 0-4.7169647 1.623498-5.5177994 3.8942385h-1.4040909c-3.9271793-.0000001-7.0974445 3.1702651-7.0974445 7.0973777z" fill="#24272b"></path></g></g></g></g><g><g><g><g><path d="m41.0275879 16.2063084c-1.8588867.5012817-3.359375 1.8788452-3.9938965 3.6774902h-1.4040527c-3.9272461 0-7.0974121 3.1702271-7.0974121 7.0973511 0 1.963623.7897949 3.7407227 2.0732422 5.0241718 1.2834473 1.2943726 3.0605469 2.0842285 5.0241699 2.0842285h5.3979492z" fill="#13181e"></path></g></g></g></g><g><g><g><g><path d="m33.3812714 20.2898884v13.4102306c-1.0559502-.3442574-2.0040951-.9212494-2.7695808-1.6970367-1.290884-1.2785358-2.08531-3.0534554-2.08531-5.0270195-.0000001-3.1334572 2.0372791-5.7558346 4.8548908-6.6861744z" fill="#13181e"></path></g></g></g></g></g><g><g><g><path d="m61.5279694 102.0088501h49.9630737c.9625626 0 1.7647781-.7266464 1.8781281-1.6797562l.4151611-3.7652359h-51.6522827z" fill="#e5f5f9"></path></g></g><g><g><path d="m46.0381966 96.563858v2.6139832c0 1.5635223 1.2674866 2.8310089 2.8310127 2.8310089h16.5561295c1.4427185 0 2.6546631-1.0849228 2.8137512-2.5188446l.3246307-2.9261475z" fill="#fff"></path></g></g><g><g><path d="m68.5506744 96.563858h45.2206116l3.5295486-31.7074203c.1036758-.8964386-.6040802-1.6795311-1.509964-1.6795311h-42.1536865c-.7736435 0-1.4251785.5755119-1.509964 1.3493843z" fill="#fff"></path></g></g><g><g><path d="m68.5540466 96.563858h3.1664429c1.4423218 0 2.654068-1.084343 2.8136292-2.5178146l3.2492752-29.1896057c.1036758-.8964386-.6040726-1.6795311-1.509964-1.6795311h-2.6328735c-.7736435 0-1.4247208.5755119-1.509964 1.3493843z" fill="#e5f5f9"></path></g></g><g><g><path d="m88.0456467 81.4827881v.0103226c0 1.3423157 1.0881653 2.4304733 2.430481 2.4304733h7.3017654c1.3423157 0 2.4304733-1.0881577 2.4304733-2.4304733v-.0103226c0-1.3423157-1.0881577-2.430481-2.4304733-2.430481h-7.3017654c-1.3423157 0-2.430481 1.0881653-2.430481 2.430481z" fill="#fc545d"></path></g></g><g><g><path d="m88.1605759 82.226326c.3114014.9866791 1.2359543 1.6931534 2.3162079 1.6931534h7.3015823c1.33992 0 2.4308243-1.0802536 2.4308243-2.4305649v-.0103989c0-1.080246-.7166214-2.0045471-1.7035522-2.3162003.072525.2284775.1141129.4777451.1141129.7374115v.0103989c0 1.3399124-1.0904007 2.4305649-2.4303131 2.4305649h-7.30159c-.2495271 0-.4990464-.0415878-.7272721-.1143646z" fill="#f14448"></path></g></g><g opacity=".5"><g><g><g><path d="m48.855938 99.7403488h6.231987c.5741081 0 1.0386658-.4645615 1.0386658-1.0386658s-.4645576-1.0386658-1.0386658-1.0386658h-6.231987c-.5741043 0-1.038662.4645615-1.038662 1.0386658s.4645576 1.0386658 1.038662 1.0386658z" fill="#fff"></path></g></g></g></g></g></g><g><g opacity=".3"><g><g><path d="m62.6407928 93.3649979.0000038-12.8875809c0-.5842896.4728012-1.0570908 1.0570908-1.0570908.5842857 0 1.0570869.4728012 1.0570869 1.0570908v12.8875809c0 .5842896-.4728012 1.0570908-1.0570908 1.0570908s-1.0570907-.4728013-1.0570907-1.0570908z" fill="#fff"></path></g></g></g></g></g><g opacity=".3"><g><g><g><path d="m60.4270172 26.2627048c-.4697266 0-.8496094-.3808594-.8496094-.8500977 0-.6376953-.0810547-1.2724609-.2402344-1.8852539-.1171875-.4545898.1552734-.918457.6103516-1.0361328.4482422-.1166992.9179688.1542969 1.0361328.609375.1943359.7524414.2929688 1.5302734.2929688 2.3120117 0 .4692384-.3798828.8500977-.8496094.8500977z" fill="#fff"></path></g></g></g><g><g><g><path d="m58.9319 21.4970798c-.2685547 0-.5332031-.1269531-.6982422-.3637695-1.4072266-2.019043-3.7099609-3.2241211-6.1601563-3.2241211-.4697266 0-.8496094-.3808594-.8496094-.8500977s.3798828-.8500977.8496094-.8500977c3.0058594 0 5.8300781 1.4775391 7.5546875 3.9516602.2685547.3852539.1738281.9150391-.2109375 1.1835938-.1484374.1030274-.3173827.152832-.4853515.152832z" fill="#fff"></path></g></g></g></g><g><g><g><g><g><path d="m117.7521591 32.4116364v15.9303894c0 .051796 0 .0961952-.0072174.1479912-.0739975 2.0845146-1.7892532 3.7551956-3.8961487 3.7551956h-14.2375107c-.1404114 0-.2736053.0369987-.3844147.1330109l-4.9974213 3.67416c-.4284592.3178215-1.0348587.014801-1.0348587-.5176086v-2.6389427c0-.3623962-.2880478-.6506195-.650444-.6506195h-.3252182c-2.0993195 0-3.8145752-1.670681-3.8882065-3.7551956-.0075836-.0443993-.0075836-.0961952-.0075836-.1479912v-15.9303895c0-1.9572048 1.6217117-3.8885689 3.6741638-3.8885689.0434647-.0142517.1822357-.0147991.2216263-.0147991h21.6298676c.0405121 0 .1850433.0003185.2292099.0147991 2.0168991 0 3.6741562 1.9021225 3.6741562 3.8885689z" fill="#4fe88d"></path></g></g><g><g><path d="m117.7449417 48.4900169c-.0739975 2.0845146-1.7892532 3.7551956-3.8961487 3.7551956h-14.2375107c-.1404114 0-.2736053.0369987-.3844147.1330109l-4.9974213 3.67416c-.4284592.3178215-1.0348587.014801-1.0348587-.5176086v-2.6389427c0-.3623962-.2880478-.6506195-.650444-.6506195h-.3252182c-2.0993195 0-3.8145752-1.670681-3.8882065-3.7551956v-16.0783806c0-2.0204239 1.6700439-3.8885689 3.6665802-3.8885689.0220184-.0072193.0368195-.0072193.0516129-.0072193v16.1003971c0 2.1512947 1.7372818 3.9031906 3.8957901 3.9031906z" fill="#35d175"></path></g></g></g><g opacity=".3"><g><g><g><path d="m97.1002731 31.0643902c0 .5469685.4427872.9897556.9896545.9897556h1.4846878c.5469666 0 .9897537-.4427872.9897537-.9897556 0-.5382767-.4427872-.9810658-.9897537-.9810658h-1.4846878c-.5468673 0-.9896545.4427891-.9896545.9810658z" fill="#fff"></path></g></g><g><g><path d="m101.7554321 31.0643902c0 .5469685.4427872.9897556.9897537.9897556h9.0291595c.5383835 0 .9811707-.4427872.9811707-.9897556 0-.5382767-.4427872-.9810658-.9811707-.9810658h-9.0291595c-.5469665 0-.9897537.4427891-.9897537.9810658z" fill="#fff"></path></g></g></g></g></g><g><g><g><g><path d="m107.467392 47.7789345c.4562302-.2421265.6289444-.8075218.387146-1.2634239l-6.389801-12.0300751c-.2411499-.4559021-.8075256-.6292686-1.2630997-.3868179-.4562302.2421265-.6289444.8075218-.3871384 1.2634239l6.3897934 12.0300789c.2402725.4534301.8060074.6303138 1.2630997.3868141z" fill="#fff"></path></g></g></g><g><g><g><g><path d="m109.5593185 44.5188637 2.9224625-2.9227943c.1753235-.1753197.273735-.4132118.273735-.6612015-.0006485-.2479935-.0990677-.4855576-.2743912-.660881l-2.9224625-2.9162712c-.3656311-.364006-.957428-.364006-1.3217545.0016289-.3643341.3653069-.363678.9567757.0013046 1.3214302l2.2609329 2.255394-2.2615891 2.2615891c-.3649826.3646545-.3649826.9564476 0 1.3214302.3651812.3645285.9567645.3646658 1.3217623-.0003244z" fill="#fff"></path></g></g></g><g><g><g><path d="m99.4314728 44.5191879c.3649826-.3649826.3649826-.9567757 0-1.3214302l-2.2615891-2.2615891 2.2609406-2.255394c.3649826-.3646545.3656311-.9561234.001297-1.3214302-.3643265-.3649826-.9561234-.3659592-1.3217545-.0016289l-2.9224625 2.9162712c-.1753235.1753235-.2737427.4128876-.2743912.660881 0 .2479897.0984116.4858818.273735.6612015l2.9224701 2.9227943c.3648607.3648645.9564363.3649904 1.3217546.0003244z" fill="#fff"></path></g></g></g></g></g></g><g><g><g><path d="m88.1457062 18.2544975c0 2.5679626-.9880447 4.9037132-2.6044159 6.6475639-1.2521133 1.3522606-2.1536179 2.9686108-2.6043701 4.7170181-.0181732-.0045567-.0409622-.0045567-.0591354-.0045567h-9.0425339c-.0182343 0-.0409622 0-.0591354.0045586-.1183929-.4507542-.2686768-.8969784-.4461975-1.3295021-.5100021-1.2430191-1.2476044-2.3949432-2.1809616-3.4057484-1.6437225-1.7893696-2.6317139-4.1933994-2.5816345-6.82967.1001511-5.0357437 4.1205292-9.2519312 9.1517487-9.5706272 5.6959456-.3551567 10.4266356 4.156995 10.4266356 9.7709638z" fill="#ffbc50"></path></g></g><g><g><path d="m83.9295197 27.1285133c-.432579.7877064-.764946 1.6209068-.9925995 2.4905663-.0181732-.0045567-.0409622-.0045567-.0591354-.0045567h-9.0425339c-.0182343 0-.0409622 0-.0591354.0045586-.1183929-.4507542-.2686768-.8969784-.4461975-1.3295021-.5100021-1.2430191-1.2476044-2.3949432-2.1809616-3.4057484-1.6437225-1.7893696-2.6317139-4.1933994-2.5816345-6.82967.068306-3.5149908 2.0488968-6.6247759 4.9446716-8.2957611-1.2657776 1.6209078-2.0397873 3.6379337-2.0808029 5.8097782-.0500183 2.6362419.9379654 5.0403004 2.5816879 6.82967.093338.101078.1930923.2247849.2971725.3660355 1.9910202 2.7021637 5.0910034 4.3650627 8.447464 4.3647041.7016983-.0000744 1.1720047-.0000744 1.1720047-.0000744z" fill="#ffb32c"></path></g></g><g><g><path d="m75.1720581 35.5089417c.075531 1.6951332 1.4707565 3.0483665 3.1844559 3.0483665s3.1089249-1.3532333 3.1844559-3.0483665z" fill="#24272b"></path></g></g><g><g><path d="m81.4207535 36.2392998h-3.9878464c-.8834686 0-1.4350357 1.0039368-.9175034 1.7199516.0035706.0049362.0071564.0098648.0107498.014782-.7831192-.5463524-1.3067398-1.4433289-1.3522568-2.4632225h6.365242c-.009117.2504158-.0500793.496273-.1183852.7284889z" fill="#13181e"></path></g></g><g><g><path d="m84.3508224 34.0349045v.0000038c0 .8140831-.6599426 1.4740295-1.4740295 1.4740295l-9.0405502.0000038c-.8140869 0-1.4740372-.6599464-1.4740372-1.4740334v-.0000038c0-.8140831.6599503-1.4740295 1.4740372-1.4740295h9.0405502c.8140869 0 1.4740295.6599465 1.4740295 1.4740296z" fill="#24272b"></path></g></g><g><g><path d="m84.3508224 31.0868378v.0000038c0 .814085-.6599426 1.4740334-1.4740295 1.4740334h-9.0405502c-.8140869 0-1.4740372-.6599483-1.4740372-1.4740334v-.0000019c0-.8140869.6599503-1.4740334 1.4740372-1.4740334h9.0405502c.8140869 0 1.4740295.6599465 1.4740295 1.4740315z" fill="#24272b"></path></g></g><g><g><path d="m84.220932 31.6952991c-.2322159.5099468-.7467194.8651028-1.3431473.8651028h-9.0425339c-.8150253 0-1.4752045-.6602058-1.4752045-1.4752312 0-.4052067.1639557-.7740078.432518-1.0380955.0638123-.0637512.1320648-.1183853.2049255-.1730213-.0865402.1821365-.1320038.3915615-.1320038.6101303 0 .8149967.6601791 1.4752045 1.4752045 1.4752045l9.0378647-.0000019c.3141938 0 .6055985-.0956249.8423768-.2640877z" fill="#13181e"></path></g></g><g><g><path d="m84.220932 34.643837c-.2322159.5099449-.7467194.8651009-1.3431473.8651009l-9.0425339.0000038c-.8150253 0-1.4752045-.6602097-1.4752045-1.475235 0-.4052048.1639557-.7740059.432518-1.0380936.0638123-.0637512.1320648-.1183853.2049255-.1730232-.0865402.1821365-.1320038.3915634-.1320038.6101303 0 .8149986.6601791 1.4752045 1.4752045 1.4752045h9.0378647c.3141938 0 .6055985-.0956231.8423768-.2640877z" fill="#13181e"></path></g></g><g><g><g><g><path d="m78.3639984 6.8149562c-.3728714 0-.6753845-.3025174-.6753845-.6753874v-1.5939312c0-.37287.3025131-.6753871.6753845-.6753871s.6753845.3025172.6753845.6753871v1.5939312c0 .37287-.3025131.6753874-.6753845.6753874z" fill="#e5f5f9"></path></g></g></g><g><g><g><path d="m74.2468262 7.9144015c-.3229141.1864352-.7361603.075706-.9225922-.2472091l-.7969666-1.3803849c-.1864319-.3229146-.0757065-.7361608.2472076-.922596.3229141-.1864347.7361603-.075706.9225998.2472091l.7969666 1.3803849c.1864319.3229147.0757065.7361608-.2472152.922596z" fill="#e5f5f9"></path></g></g></g><g><g><g><path d="m82.4792938 7.9213924c-.3229141-.1864347-.4336472-.5996809-.2472076-.922596l.7969666-1.3803849c.1864319-.3229151.599678-.4336438.9225922-.2472091.3229141.1864352.4336472.5996814.2472076.922596l-.7969666 1.3803854c-.1864319.3229146-.5996781.4336434-.9225922.2472086z" fill="#e5f5f9"></path></g></g></g></g><g><g><g><g><path d="m79.0392761 5.7045631v.4367647c0 .369215-.3016357.6753869-.6753845.6753869-.3737564 0-.6753922-.3061719-.6753922-.6753869v-.4367647c0 .3737221.3016357.6753874.6753922.6753874.3737488-.0000005.6753845-.3016653.6753845-.6753874z" fill="#d3e6ed"></path></g></g></g><g><g><g><path d="m74.2485199 7.9153461c-.324173.1845932-.7384262.0765362-.9229965-.2476363l-.7969666-1.3822961c-.1035461-.1756072-.1170654-.3737216-.0540771-.5538359.0135193.040535.0315475.0810428.0540771.1215782l.7969666 1.3822956c.1845703.3196936.5988235.4322577.9229965.2431297.1485672-.0855503.2476654-.216115.3016968-.3647079.0990448.2971855-.0225373.6348792-.3016968.8014727z" fill="#d3e6ed"></path></g></g></g><g><g><g><path d="m84.1992188 6.2943997-.7969666 1.377789c-.1845703.3242002-.5988235.4367647-.9229965.247664-.2836685-.1621137-.4007416-.4998074-.3016968-.8014727.0495758.1531.1531296.2881718.3016968.369215.324173.1845937.7384262.0765362.9229965-.2476363l.7969666-1.377789c.0225296-.0405354.0405579-.0810432.0540771-.1215787.0584869.1756077.04496.3782292-.0540771.5538087z" fill="#d3e6ed"></path></g></g></g></g><g opacity=".3"><g opacity=".4"><g><g><path d="m82.7075424 30.9300995h-3.2761154c-.1957703 0-.354187-.1585865-.354187-.3541813 0-.1955967.1584167-.3541832.354187-.3541832h3.2761154c.1957626 0 .3541794.1585865.3541794.3541832 0 .1955948-.1584167.3541813-.3541794.3541813z" fill="#e5f5f9"></path></g></g></g><g opacity=".4"><g><g><path d="m78.152359 30.9300995h-.115181c-.1957703 0-.3541794-.1585865-.3541794-.3541813 0-.1955967.1584091-.3541832.3541794-.3541832h.115181c.1957703 0 .3541794.1585865.3541794.3541832 0 .1955948-.1584091.3541813-.3541794.3541813z" fill="#e5f5f9"></path></g></g></g></g></g></g></svg>